%TF.GenerationSoftware,KiCad,Pcbnew,(6.0.9)*%
%TF.CreationDate,2022-11-21T22:18:44+02:00*%
%TF.ProjectId,esp32s2_devboard,65737033-3273-4325-9f64-6576626f6172,rev?*%
%TF.SameCoordinates,Original*%
%TF.FileFunction,Legend,Bot*%
%TF.FilePolarity,Positive*%
%FSLAX46Y46*%
G04 Gerber Fmt 4.6, Leading zero omitted, Abs format (unit mm)*
G04 Created by KiCad (PCBNEW (6.0.9)) date 2022-11-21 22:18:44*
%MOMM*%
%LPD*%
G01*
G04 APERTURE LIST*
%ADD10C,0.150000*%
%ADD11C,0.120000*%
G04 APERTURE END LIST*
D10*
%TO.C,D3*%
X161138095Y-93252380D02*
X161138095Y-92252380D01*
X160900000Y-92252380D01*
X160757142Y-92300000D01*
X160661904Y-92395238D01*
X160614285Y-92490476D01*
X160566666Y-92680952D01*
X160566666Y-92823809D01*
X160614285Y-93014285D01*
X160661904Y-93109523D01*
X160757142Y-93204761D01*
X160900000Y-93252380D01*
X161138095Y-93252380D01*
X160233333Y-92252380D02*
X159614285Y-92252380D01*
X159947619Y-92633333D01*
X159804761Y-92633333D01*
X159709523Y-92680952D01*
X159661904Y-92728571D01*
X159614285Y-92823809D01*
X159614285Y-93061904D01*
X159661904Y-93157142D01*
X159709523Y-93204761D01*
X159804761Y-93252380D01*
X160090476Y-93252380D01*
X160185714Y-93204761D01*
X160233333Y-93157142D01*
%TO.C,R9*%
X159122380Y-74283333D02*
X158646190Y-73950000D01*
X159122380Y-73711904D02*
X158122380Y-73711904D01*
X158122380Y-74092857D01*
X158170000Y-74188095D01*
X158217619Y-74235714D01*
X158312857Y-74283333D01*
X158455714Y-74283333D01*
X158550952Y-74235714D01*
X158598571Y-74188095D01*
X158646190Y-74092857D01*
X158646190Y-73711904D01*
X159122380Y-74759523D02*
X159122380Y-74950000D01*
X159074761Y-75045238D01*
X159027142Y-75092857D01*
X158884285Y-75188095D01*
X158693809Y-75235714D01*
X158312857Y-75235714D01*
X158217619Y-75188095D01*
X158170000Y-75140476D01*
X158122380Y-75045238D01*
X158122380Y-74854761D01*
X158170000Y-74759523D01*
X158217619Y-74711904D01*
X158312857Y-74664285D01*
X158550952Y-74664285D01*
X158646190Y-74711904D01*
X158693809Y-74759523D01*
X158741428Y-74854761D01*
X158741428Y-75045238D01*
X158693809Y-75140476D01*
X158646190Y-75188095D01*
X158550952Y-75235714D01*
%TO.C,R6*%
X164966666Y-93252380D02*
X165300000Y-92776190D01*
X165538095Y-93252380D02*
X165538095Y-92252380D01*
X165157142Y-92252380D01*
X165061904Y-92300000D01*
X165014285Y-92347619D01*
X164966666Y-92442857D01*
X164966666Y-92585714D01*
X165014285Y-92680952D01*
X165061904Y-92728571D01*
X165157142Y-92776190D01*
X165538095Y-92776190D01*
X164109523Y-92252380D02*
X164300000Y-92252380D01*
X164395238Y-92300000D01*
X164442857Y-92347619D01*
X164538095Y-92490476D01*
X164585714Y-92680952D01*
X164585714Y-93061904D01*
X164538095Y-93157142D01*
X164490476Y-93204761D01*
X164395238Y-93252380D01*
X164204761Y-93252380D01*
X164109523Y-93204761D01*
X164061904Y-93157142D01*
X164014285Y-93061904D01*
X164014285Y-92823809D01*
X164061904Y-92728571D01*
X164109523Y-92680952D01*
X164204761Y-92633333D01*
X164395238Y-92633333D01*
X164490476Y-92680952D01*
X164538095Y-92728571D01*
X164585714Y-92823809D01*
%TO.C,R4*%
X158052380Y-91233333D02*
X157576190Y-90900000D01*
X158052380Y-90661904D02*
X157052380Y-90661904D01*
X157052380Y-91042857D01*
X157100000Y-91138095D01*
X157147619Y-91185714D01*
X157242857Y-91233333D01*
X157385714Y-91233333D01*
X157480952Y-91185714D01*
X157528571Y-91138095D01*
X157576190Y-91042857D01*
X157576190Y-90661904D01*
X157385714Y-92090476D02*
X158052380Y-92090476D01*
X157004761Y-91852380D02*
X157719047Y-91614285D01*
X157719047Y-92233333D01*
%TO.C,R3*%
X156452380Y-91233333D02*
X155976190Y-90900000D01*
X156452380Y-90661904D02*
X155452380Y-90661904D01*
X155452380Y-91042857D01*
X155500000Y-91138095D01*
X155547619Y-91185714D01*
X155642857Y-91233333D01*
X155785714Y-91233333D01*
X155880952Y-91185714D01*
X155928571Y-91138095D01*
X155976190Y-91042857D01*
X155976190Y-90661904D01*
X155452380Y-91566666D02*
X155452380Y-92185714D01*
X155833333Y-91852380D01*
X155833333Y-91995238D01*
X155880952Y-92090476D01*
X155928571Y-92138095D01*
X156023809Y-92185714D01*
X156261904Y-92185714D01*
X156357142Y-92138095D01*
X156404761Y-92090476D01*
X156452380Y-91995238D01*
X156452380Y-91709523D01*
X156404761Y-91614285D01*
X156357142Y-91566666D01*
%TO.C,Q2*%
X162595238Y-79797620D02*
X162690476Y-79750001D01*
X162785714Y-79654762D01*
X162928571Y-79511905D01*
X163023809Y-79464286D01*
X163119047Y-79464286D01*
X163071428Y-79702381D02*
X163166666Y-79654762D01*
X163261904Y-79559524D01*
X163309523Y-79369048D01*
X163309523Y-79035715D01*
X163261904Y-78845239D01*
X163166666Y-78750001D01*
X163071428Y-78702381D01*
X162880952Y-78702381D01*
X162785714Y-78750001D01*
X162690476Y-78845239D01*
X162642857Y-79035715D01*
X162642857Y-79369048D01*
X162690476Y-79559524D01*
X162785714Y-79654762D01*
X162880952Y-79702381D01*
X163071428Y-79702381D01*
X162261904Y-78797620D02*
X162214285Y-78750001D01*
X162119047Y-78702381D01*
X161880952Y-78702381D01*
X161785714Y-78750001D01*
X161738095Y-78797620D01*
X161690476Y-78892858D01*
X161690476Y-78988096D01*
X161738095Y-79130953D01*
X162309523Y-79702381D01*
X161690476Y-79702381D01*
%TO.C,R1*%
X168272380Y-91138332D02*
X167796190Y-90804999D01*
X168272380Y-90566903D02*
X167272380Y-90566903D01*
X167272380Y-90947856D01*
X167320000Y-91043094D01*
X167367619Y-91090713D01*
X167462857Y-91138332D01*
X167605714Y-91138332D01*
X167700952Y-91090713D01*
X167748571Y-91043094D01*
X167796190Y-90947856D01*
X167796190Y-90566903D01*
X168272380Y-92090713D02*
X168272380Y-91519284D01*
X168272380Y-91804999D02*
X167272380Y-91804999D01*
X167415238Y-91709760D01*
X167510476Y-91614522D01*
X167558095Y-91519284D01*
%TO.C,C5*%
X156827142Y-75983333D02*
X156874761Y-75935714D01*
X156922380Y-75792857D01*
X156922380Y-75697619D01*
X156874761Y-75554761D01*
X156779523Y-75459523D01*
X156684285Y-75411904D01*
X156493809Y-75364285D01*
X156350952Y-75364285D01*
X156160476Y-75411904D01*
X156065238Y-75459523D01*
X155970000Y-75554761D01*
X155922380Y-75697619D01*
X155922380Y-75792857D01*
X155970000Y-75935714D01*
X156017619Y-75983333D01*
X155922380Y-76888095D02*
X155922380Y-76411904D01*
X156398571Y-76364285D01*
X156350952Y-76411904D01*
X156303333Y-76507142D01*
X156303333Y-76745238D01*
X156350952Y-76840476D01*
X156398571Y-76888095D01*
X156493809Y-76935714D01*
X156731904Y-76935714D01*
X156827142Y-76888095D01*
X156874761Y-76840476D01*
X156922380Y-76745238D01*
X156922380Y-76507142D01*
X156874761Y-76411904D01*
X156827142Y-76364285D01*
%TO.C,R2*%
X169772380Y-91138332D02*
X169296190Y-90804999D01*
X169772380Y-90566903D02*
X168772380Y-90566903D01*
X168772380Y-90947856D01*
X168820000Y-91043094D01*
X168867619Y-91090713D01*
X168962857Y-91138332D01*
X169105714Y-91138332D01*
X169200952Y-91090713D01*
X169248571Y-91043094D01*
X169296190Y-90947856D01*
X169296190Y-90566903D01*
X168867619Y-91519284D02*
X168820000Y-91566903D01*
X168772380Y-91662141D01*
X168772380Y-91900237D01*
X168820000Y-91995475D01*
X168867619Y-92043094D01*
X168962857Y-92090713D01*
X169058095Y-92090713D01*
X169200952Y-92043094D01*
X169772380Y-91471665D01*
X169772380Y-92090713D01*
%TO.C,R7*%
X160461666Y-66592379D02*
X160795000Y-66116189D01*
X161033095Y-66592379D02*
X161033095Y-65592379D01*
X160652142Y-65592379D01*
X160556904Y-65639999D01*
X160509285Y-65687618D01*
X160461666Y-65782856D01*
X160461666Y-65925713D01*
X160509285Y-66020951D01*
X160556904Y-66068570D01*
X160652142Y-66116189D01*
X161033095Y-66116189D01*
X160128333Y-65592379D02*
X159461666Y-65592379D01*
X159890238Y-66592379D01*
%TO.C,C2*%
X157916666Y-54737143D02*
X157964285Y-54784762D01*
X158107142Y-54832381D01*
X158202380Y-54832381D01*
X158345238Y-54784762D01*
X158440476Y-54689524D01*
X158488095Y-54594286D01*
X158535714Y-54403810D01*
X158535714Y-54260953D01*
X158488095Y-54070477D01*
X158440476Y-53975239D01*
X158345238Y-53880001D01*
X158202380Y-53832381D01*
X158107142Y-53832381D01*
X157964285Y-53880001D01*
X157916666Y-53927620D01*
X157535714Y-53927620D02*
X157488095Y-53880001D01*
X157392857Y-53832381D01*
X157154761Y-53832381D01*
X157059523Y-53880001D01*
X157011904Y-53927620D01*
X156964285Y-54022858D01*
X156964285Y-54118096D01*
X157011904Y-54260953D01*
X157583333Y-54832381D01*
X156964285Y-54832381D01*
%TO.C,C7*%
X160461666Y-67857141D02*
X160509285Y-67904760D01*
X160652142Y-67952379D01*
X160747380Y-67952379D01*
X160890238Y-67904760D01*
X160985476Y-67809522D01*
X161033095Y-67714284D01*
X161080714Y-67523808D01*
X161080714Y-67380951D01*
X161033095Y-67190475D01*
X160985476Y-67095237D01*
X160890238Y-66999999D01*
X160747380Y-66952379D01*
X160652142Y-66952379D01*
X160509285Y-66999999D01*
X160461666Y-67047618D01*
X160128333Y-66952379D02*
X159461666Y-66952379D01*
X159890238Y-67952379D01*
%TO.C,C4*%
X164761666Y-69607141D02*
X164809285Y-69654760D01*
X164952142Y-69702379D01*
X165047380Y-69702379D01*
X165190238Y-69654760D01*
X165285476Y-69559522D01*
X165333095Y-69464284D01*
X165380714Y-69273808D01*
X165380714Y-69130951D01*
X165333095Y-68940475D01*
X165285476Y-68845237D01*
X165190238Y-68749999D01*
X165047380Y-68702379D01*
X164952142Y-68702379D01*
X164809285Y-68749999D01*
X164761666Y-68797618D01*
X163904523Y-69035713D02*
X163904523Y-69702379D01*
X164142619Y-68654760D02*
X164380714Y-69369046D01*
X163761666Y-69369046D01*
%TO.C,Q1*%
X162595238Y-69997620D02*
X162690476Y-69950001D01*
X162785714Y-69854762D01*
X162928571Y-69711905D01*
X163023809Y-69664286D01*
X163119047Y-69664286D01*
X163071428Y-69902381D02*
X163166666Y-69854762D01*
X163261904Y-69759524D01*
X163309523Y-69569048D01*
X163309523Y-69235715D01*
X163261904Y-69045239D01*
X163166666Y-68950001D01*
X163071428Y-68902381D01*
X162880952Y-68902381D01*
X162785714Y-68950001D01*
X162690476Y-69045239D01*
X162642857Y-69235715D01*
X162642857Y-69569048D01*
X162690476Y-69759524D01*
X162785714Y-69854762D01*
X162880952Y-69902381D01*
X163071428Y-69902381D01*
X161690476Y-69902381D02*
X162261904Y-69902381D01*
X161976190Y-69902381D02*
X161976190Y-68902381D01*
X162071428Y-69045239D01*
X162166666Y-69140477D01*
X162261904Y-69188096D01*
%TO.C,C1*%
X157916666Y-50177142D02*
X157964285Y-50224761D01*
X158107142Y-50272380D01*
X158202380Y-50272380D01*
X158345238Y-50224761D01*
X158440476Y-50129523D01*
X158488095Y-50034285D01*
X158535714Y-49843809D01*
X158535714Y-49700952D01*
X158488095Y-49510476D01*
X158440476Y-49415238D01*
X158345238Y-49320000D01*
X158202380Y-49272380D01*
X158107142Y-49272380D01*
X157964285Y-49320000D01*
X157916666Y-49367619D01*
X156964285Y-50272380D02*
X157535714Y-50272380D01*
X157250000Y-50272380D02*
X157250000Y-49272380D01*
X157345238Y-49415238D01*
X157440476Y-49510476D01*
X157535714Y-49558095D01*
%TO.C,R5*%
X164761666Y-67952379D02*
X165095000Y-67476189D01*
X165333095Y-67952379D02*
X165333095Y-66952379D01*
X164952142Y-66952379D01*
X164856904Y-66999999D01*
X164809285Y-67047618D01*
X164761666Y-67142856D01*
X164761666Y-67285713D01*
X164809285Y-67380951D01*
X164856904Y-67428570D01*
X164952142Y-67476189D01*
X165333095Y-67476189D01*
X163856904Y-66952379D02*
X164333095Y-66952379D01*
X164380714Y-67428570D01*
X164333095Y-67380951D01*
X164237857Y-67333332D01*
X163999761Y-67333332D01*
X163904523Y-67380951D01*
X163856904Y-67428570D01*
X163809285Y-67523808D01*
X163809285Y-67761903D01*
X163856904Y-67857141D01*
X163904523Y-67904760D01*
X163999761Y-67952379D01*
X164237857Y-67952379D01*
X164333095Y-67904760D01*
X164380714Y-67857141D01*
%TO.C,R8*%
X166982380Y-74283333D02*
X166506190Y-73950000D01*
X166982380Y-73711904D02*
X165982380Y-73711904D01*
X165982380Y-74092857D01*
X166030000Y-74188095D01*
X166077619Y-74235714D01*
X166172857Y-74283333D01*
X166315714Y-74283333D01*
X166410952Y-74235714D01*
X166458571Y-74188095D01*
X166506190Y-74092857D01*
X166506190Y-73711904D01*
X166410952Y-74854761D02*
X166363333Y-74759523D01*
X166315714Y-74711904D01*
X166220476Y-74664285D01*
X166172857Y-74664285D01*
X166077619Y-74711904D01*
X166030000Y-74759523D01*
X165982380Y-74854761D01*
X165982380Y-75045238D01*
X166030000Y-75140476D01*
X166077619Y-75188095D01*
X166172857Y-75235714D01*
X166220476Y-75235714D01*
X166315714Y-75188095D01*
X166363333Y-75140476D01*
X166410952Y-75045238D01*
X166410952Y-74854761D01*
X166458571Y-74759523D01*
X166506190Y-74711904D01*
X166601428Y-74664285D01*
X166791904Y-74664285D01*
X166887142Y-74711904D01*
X166934761Y-74759523D01*
X166982380Y-74854761D01*
X166982380Y-75045238D01*
X166934761Y-75140476D01*
X166887142Y-75188095D01*
X166791904Y-75235714D01*
X166601428Y-75235714D01*
X166506190Y-75188095D01*
X166458571Y-75140476D01*
X166410952Y-75045238D01*
D11*
%TO.C,R9*%
X159577500Y-74212742D02*
X159577500Y-74687258D01*
X160622500Y-74212742D02*
X160622500Y-74687258D01*
%TO.C,R6*%
X163082500Y-92380241D02*
X163082500Y-92854757D01*
X162037500Y-92380241D02*
X162037500Y-92854757D01*
%TO.C,R4*%
X158022500Y-93817741D02*
X158022500Y-94292257D01*
X156977500Y-93817741D02*
X156977500Y-94292257D01*
%TO.C,R3*%
X156522500Y-93817741D02*
X156522500Y-94292257D01*
X155477500Y-93817741D02*
X155477500Y-94292257D01*
%TO.C,Q2*%
X160990000Y-76450001D02*
X160990000Y-74775001D01*
X160990000Y-76450001D02*
X160990000Y-77100001D01*
X164110000Y-76450001D02*
X164110000Y-77100001D01*
X164110000Y-76450001D02*
X164110000Y-75800001D01*
%TO.C,R1*%
X167297500Y-93567741D02*
X167297500Y-94042257D01*
X168342500Y-93567741D02*
X168342500Y-94042257D01*
%TO.C,C5*%
X158410000Y-76009420D02*
X158410000Y-76290580D01*
X157390000Y-76009420D02*
X157390000Y-76290580D01*
%TO.C,R2*%
X169842500Y-93567741D02*
X169842500Y-94042257D01*
X168797500Y-93567741D02*
X168797500Y-94042257D01*
%TO.C,R7*%
X160532258Y-67047499D02*
X160057742Y-67047499D01*
X160532258Y-68092499D02*
X160057742Y-68092499D01*
%TO.C,C2*%
X157609420Y-52440001D02*
X157890580Y-52440001D01*
X157609420Y-53460001D02*
X157890580Y-53460001D01*
%TO.C,C7*%
X160154420Y-66579999D02*
X160435580Y-66579999D01*
X160154420Y-65559999D02*
X160435580Y-65559999D01*
%TO.C,C4*%
X164454420Y-68329999D02*
X164735580Y-68329999D01*
X164454420Y-67309999D02*
X164735580Y-67309999D01*
%TO.C,Q1*%
X164060000Y-72450001D02*
X164060000Y-71800001D01*
X160940000Y-72450001D02*
X160940000Y-73100001D01*
X160940000Y-72450001D02*
X160940000Y-71800001D01*
X164060000Y-72450001D02*
X164060000Y-74125001D01*
%TO.C,C1*%
X157890580Y-51760000D02*
X157609420Y-51760000D01*
X157890580Y-50740000D02*
X157609420Y-50740000D01*
%TO.C,R5*%
X164357742Y-66592499D02*
X164832258Y-66592499D01*
X164357742Y-65547499D02*
X164832258Y-65547499D01*
%TO.C,R8*%
X165622500Y-74687258D02*
X165622500Y-74212742D01*
X164577500Y-74687258D02*
X164577500Y-74212742D01*
%TD*%
M02*
