%TF.GenerationSoftware,KiCad,Pcbnew,(6.0.9)*%
%TF.CreationDate,2022-11-21T22:18:44+02:00*%
%TF.ProjectId,esp32s2_devboard,65737033-3273-4325-9f64-6576626f6172,rev?*%
%TF.SameCoordinates,Original*%
%TF.FileFunction,Copper,L1,Top*%
%TF.FilePolarity,Positive*%
%FSLAX46Y46*%
G04 Gerber Fmt 4.6, Leading zero omitted, Abs format (unit mm)*
G04 Created by KiCad (PCBNEW (6.0.9)) date 2022-11-21 22:18:44*
%MOMM*%
%LPD*%
G01*
G04 APERTURE LIST*
G04 Aperture macros list*
%AMRoundRect*
0 Rectangle with rounded corners*
0 $1 Rounding radius*
0 $2 $3 $4 $5 $6 $7 $8 $9 X,Y pos of 4 corners*
0 Add a 4 corners polygon primitive as box body*
4,1,4,$2,$3,$4,$5,$6,$7,$8,$9,$2,$3,0*
0 Add four circle primitives for the rounded corners*
1,1,$1+$1,$2,$3*
1,1,$1+$1,$4,$5*
1,1,$1+$1,$6,$7*
1,1,$1+$1,$8,$9*
0 Add four rect primitives between the rounded corners*
20,1,$1+$1,$2,$3,$4,$5,0*
20,1,$1+$1,$4,$5,$6,$7,0*
20,1,$1+$1,$6,$7,$8,$9,0*
20,1,$1+$1,$8,$9,$2,$3,0*%
%AMFreePoly0*
4,1,6,0.600000,-0.600000,-0.600000,-0.600000,-0.600000,0.000000,0.000000,0.600000,0.600000,0.600000,0.600000,-0.600000,0.600000,-0.600000,$1*%
G04 Aperture macros list end*
%TA.AperFunction,SMDPad,CuDef*%
%ADD10R,0.700000X1.000000*%
%TD*%
%TA.AperFunction,SMDPad,CuDef*%
%ADD11R,0.700000X0.600000*%
%TD*%
%TA.AperFunction,SMDPad,CuDef*%
%ADD12RoundRect,0.218750X0.256250X-0.218750X0.256250X0.218750X-0.256250X0.218750X-0.256250X-0.218750X0*%
%TD*%
%TA.AperFunction,SMDPad,CuDef*%
%ADD13RoundRect,0.225000X0.225000X0.250000X-0.225000X0.250000X-0.225000X-0.250000X0.225000X-0.250000X0*%
%TD*%
%TA.AperFunction,SMDPad,CuDef*%
%ADD14RoundRect,0.225000X-0.225000X-0.250000X0.225000X-0.250000X0.225000X0.250000X-0.225000X0.250000X0*%
%TD*%
%TA.AperFunction,SMDPad,CuDef*%
%ADD15R,0.650000X1.050000*%
%TD*%
%TA.AperFunction,SMDPad,CuDef*%
%ADD16RoundRect,0.150000X-0.512500X-0.150000X0.512500X-0.150000X0.512500X0.150000X-0.512500X0.150000X0*%
%TD*%
%TA.AperFunction,SMDPad,CuDef*%
%ADD17RoundRect,0.150000X-0.150000X0.825000X-0.150000X-0.825000X0.150000X-0.825000X0.150000X0.825000X0*%
%TD*%
%TA.AperFunction,SMDPad,CuDef*%
%ADD18R,0.600000X1.450000*%
%TD*%
%TA.AperFunction,SMDPad,CuDef*%
%ADD19R,0.300000X1.450000*%
%TD*%
%TA.AperFunction,ComponentPad*%
%ADD20O,1.000000X2.100000*%
%TD*%
%TA.AperFunction,ComponentPad*%
%ADD21O,1.000000X1.600000*%
%TD*%
%TA.AperFunction,ComponentPad*%
%ADD22R,1.700000X1.700000*%
%TD*%
%TA.AperFunction,ComponentPad*%
%ADD23O,1.700000X1.700000*%
%TD*%
%TA.AperFunction,SMDPad,CuDef*%
%ADD24R,0.800000X0.400000*%
%TD*%
%TA.AperFunction,SMDPad,CuDef*%
%ADD25R,0.400000X0.800000*%
%TD*%
%TA.AperFunction,SMDPad,CuDef*%
%ADD26R,1.200000X1.200000*%
%TD*%
%TA.AperFunction,SMDPad,CuDef*%
%ADD27FreePoly0,0.000000*%
%TD*%
%TA.AperFunction,SMDPad,CuDef*%
%ADD28R,0.800000X0.800000*%
%TD*%
G04 APERTURE END LIST*
D10*
%TO.P,D2,1,GND*%
%TO.N,GND*%
X155790000Y-86054999D03*
D11*
%TO.P,D2,2,I/O1*%
%TO.N,/UART_USB_D-*%
X155790000Y-87754999D03*
%TO.P,D2,3,I/O2*%
%TO.N,/UART_USB_D+*%
X157790000Y-87754999D03*
%TO.P,D2,4,VCC*%
%TO.N,unconnected-(D2-Pad4)*%
X157790000Y-85854999D03*
%TD*%
D12*
%TO.P,F1,1*%
%TO.N,/VBUS*%
X159400000Y-86237500D03*
%TO.P,F1,2*%
%TO.N,+5V*%
X159400000Y-84662500D03*
%TD*%
D13*
%TO.P,C6,1*%
%TO.N,+3V3*%
X163697500Y-83157501D03*
%TO.P,C6,2*%
%TO.N,GND*%
X162147500Y-83157501D03*
%TD*%
D14*
%TO.P,C3,1*%
%TO.N,+5V*%
X161422500Y-88132500D03*
%TO.P,C3,2*%
%TO.N,GND*%
X162972500Y-88132500D03*
%TD*%
D10*
%TO.P,D1,1,GND*%
%TO.N,GND*%
X167500000Y-86054999D03*
D11*
%TO.P,D1,2,I/O1*%
%TO.N,unconnected-(D1-Pad2)*%
X167500000Y-87754999D03*
%TO.P,D1,3,I/O2*%
%TO.N,unconnected-(D1-Pad3)*%
X169500000Y-87754999D03*
%TO.P,D1,4,VCC*%
%TO.N,unconnected-(D1-Pad4)*%
X169500000Y-85854999D03*
%TD*%
D15*
%TO.P,SW2,1,1*%
%TO.N,GPIO0*%
X159220000Y-69145000D03*
%TO.P,SW2,2,2*%
X159220000Y-64995000D03*
%TO.P,SW2,3,3*%
%TO.N,GND*%
X161370000Y-69145000D03*
%TO.P,SW2,4,4*%
X161370000Y-64995000D03*
%TD*%
D16*
%TO.P,U2,1,VIN*%
%TO.N,+5V*%
X161422500Y-84662500D03*
%TO.P,U2,2,GND*%
%TO.N,GND*%
X161422500Y-85612500D03*
%TO.P,U2,3,EN*%
%TO.N,+5V*%
X161422500Y-86562500D03*
%TO.P,U2,4,NC*%
%TO.N,unconnected-(U2-Pad4)*%
X163697500Y-86562500D03*
%TO.P,U2,5,VOUT*%
%TO.N,+3V3*%
X163697500Y-84662500D03*
%TD*%
D12*
%TO.P,D3,1,K*%
%TO.N,GND*%
X162560000Y-93304999D03*
%TO.P,D3,2,A*%
%TO.N,Net-(D3-Pad2)*%
X162560000Y-91729999D03*
%TD*%
D17*
%TO.P,U3,1,GND*%
%TO.N,GND*%
X166945000Y-71970000D03*
%TO.P,U3,2,TXD*%
%TO.N,RX*%
X165675000Y-71970000D03*
%TO.P,U3,3,RXD*%
%TO.N,TX*%
X164405000Y-71970000D03*
%TO.P,U3,4,V3*%
%TO.N,+3V3*%
X163135000Y-71970000D03*
%TO.P,U3,5,UD+*%
%TO.N,/UART_USB_D+*%
X161865000Y-71970000D03*
%TO.P,U3,6,UD-*%
%TO.N,/UART_USB_D-*%
X160595000Y-71970000D03*
%TO.P,U3,7,NC*%
%TO.N,unconnected-(U3-Pad7)*%
X159325000Y-71970000D03*
%TO.P,U3,8,NC*%
%TO.N,unconnected-(U3-Pad8)*%
X158055000Y-71970000D03*
%TO.P,U3,9,~{CTS}*%
%TO.N,unconnected-(U3-Pad9)*%
X158055000Y-76920000D03*
%TO.P,U3,10,~{DSR}*%
%TO.N,unconnected-(U3-Pad10)*%
X159325000Y-76920000D03*
%TO.P,U3,11,~{RI}*%
%TO.N,unconnected-(U3-Pad11)*%
X160595000Y-76920000D03*
%TO.P,U3,12,~{DCD}*%
%TO.N,unconnected-(U3-Pad12)*%
X161865000Y-76920000D03*
%TO.P,U3,13,~{DTR}*%
%TO.N,/DTR*%
X163135000Y-76920000D03*
%TO.P,U3,14,~{RTS}*%
%TO.N,/RTS*%
X164405000Y-76920000D03*
%TO.P,U3,15,R232*%
%TO.N,unconnected-(U3-Pad15)*%
X165675000Y-76920000D03*
%TO.P,U3,16,VCC*%
%TO.N,+3V3*%
X166945000Y-76920000D03*
%TD*%
D18*
%TO.P,J2,A1,GND*%
%TO.N,GND*%
X153440000Y-89859999D03*
%TO.P,J2,A4,VBUS*%
%TO.N,/VBUS*%
X154240000Y-89859999D03*
D19*
%TO.P,J2,A5,CC1*%
%TO.N,Net-(J2-PadA5)*%
X155440000Y-89859999D03*
%TO.P,J2,A6,D+*%
%TO.N,/UART_USB_D+*%
X156440000Y-89859999D03*
%TO.P,J2,A7,D-*%
%TO.N,/UART_USB_D-*%
X156940000Y-89859999D03*
%TO.P,J2,A8,SBU1*%
%TO.N,unconnected-(J2-PadA8)*%
X157940000Y-89859999D03*
D18*
%TO.P,J2,A9,VBUS*%
%TO.N,/VBUS*%
X159140000Y-89859999D03*
%TO.P,J2,A12,GND*%
%TO.N,GND*%
X159940000Y-89859999D03*
%TO.P,J2,B1,GND*%
X159940000Y-89859999D03*
%TO.P,J2,B4,VBUS*%
%TO.N,/VBUS*%
X159140000Y-89859999D03*
D19*
%TO.P,J2,B5,CC2*%
%TO.N,Net-(J2-PadB5)*%
X158440000Y-89859999D03*
%TO.P,J2,B6,D+*%
%TO.N,/UART_USB_D+*%
X157440000Y-89859999D03*
%TO.P,J2,B7,D-*%
%TO.N,/UART_USB_D-*%
X155940000Y-89859999D03*
%TO.P,J2,B8,SBU2*%
%TO.N,unconnected-(J2-PadB8)*%
X154940000Y-89859999D03*
D18*
%TO.P,J2,B9,VBUS*%
%TO.N,/VBUS*%
X154240000Y-89859999D03*
%TO.P,J2,B12,GND*%
%TO.N,GND*%
X153440000Y-89859999D03*
D20*
%TO.P,J2,S1,SHIELD*%
%TO.N,unconnected-(J2-PadS1)*%
X152370000Y-90774999D03*
D21*
X161010000Y-94954999D03*
X152370000Y-94954999D03*
D20*
X161010000Y-90774999D03*
%TD*%
D22*
%TO.P,J4,1,Pin_1*%
%TO.N,/IO38*%
X172000000Y-49800000D03*
D23*
%TO.P,J4,2,Pin_2*%
%TO.N,/IO37*%
X172000000Y-52340000D03*
%TO.P,J4,3,Pin_3*%
%TO.N,/IO36*%
X172000000Y-54880000D03*
%TO.P,J4,4,Pin_4*%
%TO.N,/IO35*%
X172000000Y-57420000D03*
%TO.P,J4,5,Pin_5*%
%TO.N,/IO34*%
X172000000Y-59960000D03*
%TO.P,J4,6,Pin_6*%
%TO.N,/IO33*%
X172000000Y-62500000D03*
%TO.P,J4,7,Pin_7*%
%TO.N,/IO21*%
X172000000Y-65040000D03*
%TO.P,J4,8,Pin_8*%
%TO.N,/IO26*%
X172000000Y-67580000D03*
%TO.P,J4,9,Pin_9*%
%TO.N,/IO17*%
X172000000Y-70120000D03*
%TO.P,J4,10,Pin_10*%
%TO.N,unconnected-(J4-Pad10)*%
X172000000Y-72660000D03*
%TO.P,J4,11,Pin_11*%
%TO.N,unconnected-(J4-Pad11)*%
X172000000Y-75200000D03*
%TO.P,J4,12,Pin_12*%
%TO.N,unconnected-(J4-Pad12)*%
X172000000Y-77740000D03*
%TO.P,J4,13,Pin_13*%
%TO.N,unconnected-(J4-Pad13)*%
X172000000Y-80280000D03*
%TO.P,J4,14,Pin_14*%
%TO.N,unconnected-(J4-Pad14)*%
X172000000Y-82820000D03*
%TO.P,J4,15,Pin_15*%
%TO.N,unconnected-(J4-Pad15)*%
X172000000Y-85360000D03*
%TD*%
D18*
%TO.P,J1,A1,GND*%
%TO.N,GND*%
X165250000Y-89859999D03*
%TO.P,J1,A4,VBUS*%
%TO.N,unconnected-(J1-PadA4)*%
X166050000Y-89859999D03*
D19*
%TO.P,J1,A5,CC1*%
%TO.N,Net-(J1-PadA5)*%
X167250000Y-89859999D03*
%TO.P,J1,A6,D+*%
%TO.N,Net-(J1-PadA6)*%
X168250000Y-89859999D03*
%TO.P,J1,A7,D-*%
%TO.N,Net-(J1-PadA7)*%
X168750000Y-89859999D03*
%TO.P,J1,A8,SBU1*%
%TO.N,unconnected-(J1-PadA8)*%
X169750000Y-89859999D03*
D18*
%TO.P,J1,A9,VBUS*%
%TO.N,unconnected-(J1-PadA4)*%
X170950000Y-89859999D03*
%TO.P,J1,A12,GND*%
%TO.N,GND*%
X171750000Y-89859999D03*
%TO.P,J1,B1,GND*%
X171750000Y-89859999D03*
%TO.P,J1,B4,VBUS*%
%TO.N,unconnected-(J1-PadA4)*%
X170950000Y-89859999D03*
D19*
%TO.P,J1,B5,CC2*%
%TO.N,Net-(J1-PadB5)*%
X170250000Y-89859999D03*
%TO.P,J1,B6,D+*%
%TO.N,Net-(J1-PadA6)*%
X169250000Y-89859999D03*
%TO.P,J1,B7,D-*%
%TO.N,Net-(J1-PadA7)*%
X167750000Y-89859999D03*
%TO.P,J1,B8,SBU2*%
%TO.N,unconnected-(J1-PadB8)*%
X166750000Y-89859999D03*
D18*
%TO.P,J1,B9,VBUS*%
%TO.N,unconnected-(J1-PadA4)*%
X166050000Y-89859999D03*
%TO.P,J1,B12,GND*%
%TO.N,GND*%
X165250000Y-89859999D03*
D21*
%TO.P,J1,S1,SHIELD*%
%TO.N,unconnected-(J1-PadS1)*%
X164180000Y-94954999D03*
D20*
X172820000Y-90774999D03*
X164180000Y-90774999D03*
D21*
X172820000Y-94954999D03*
%TD*%
D24*
%TO.P,U1,1,GND*%
%TO.N,GND*%
X155560000Y-49930000D03*
%TO.P,U1,2,GND*%
X155560000Y-50780000D03*
%TO.P,U1,3,3V3*%
%TO.N,+3V3*%
X155560000Y-51630000D03*
%TO.P,U1,4,GPIO0/BOOT*%
%TO.N,GPIO0*%
X155560000Y-52480000D03*
%TO.P,U1,5,GPIO1/ADC1_CH0*%
%TO.N,/IO1*%
X155560000Y-53330000D03*
%TO.P,U1,6,GPIO2/ADC1_CH1*%
%TO.N,/IO2*%
X155560000Y-54180000D03*
%TO.P,U1,7,GPIO3/ADC1_CH2*%
%TO.N,/IO3*%
X155560000Y-55030000D03*
%TO.P,U1,8,GPIO4/ADC1_CH3*%
%TO.N,/IO4*%
X155560000Y-55880000D03*
%TO.P,U1,9,GPIO5/ADC1_CH4*%
%TO.N,/IO5*%
X155560000Y-56730000D03*
%TO.P,U1,10,GPIO6/ADC1_CH5*%
%TO.N,/IO6*%
X155560000Y-57580000D03*
%TO.P,U1,11,GPIO7/ADC1_CH6*%
%TO.N,/IO7*%
X155560000Y-58430000D03*
%TO.P,U1,12,GPIO8/ADC1_CH7*%
%TO.N,/IO8*%
X155560000Y-59280000D03*
%TO.P,U1,13,GPIO9/ADC1_CH8*%
%TO.N,/IO9*%
X155560000Y-60130000D03*
%TO.P,U1,14,GPIO10/ADC1_CH9*%
%TO.N,/IO10*%
X155560000Y-60980000D03*
%TO.P,U1,15,GPIO11/ADC2_CH0*%
%TO.N,/IO11*%
X155560000Y-61830000D03*
D25*
%TO.P,U1,16,GPIO12/ADC2_CH1*%
%TO.N,/IO12*%
X156610000Y-62880000D03*
%TO.P,U1,17,GPIO13/ADC2_CH2*%
%TO.N,/IO13*%
X157460000Y-62880000D03*
%TO.P,U1,18,GPIO14/ADC2_CH3*%
%TO.N,/IO14*%
X158310000Y-62880000D03*
%TO.P,U1,19,GPIO15/ADC2_CH4/XTAL_32K_P*%
%TO.N,/IO15*%
X159160000Y-62880000D03*
%TO.P,U1,20,GPIO16/ADC2_CH5/XTAL_32K_N*%
%TO.N,/IO16*%
X160010000Y-62880000D03*
%TO.P,U1,21,ADC2_CH7/DAC_2/GPIO17*%
%TO.N,/IO17*%
X160860000Y-62880000D03*
%TO.P,U1,22,ADC2_CH6/DAC_1/GPIO18*%
%TO.N,/IO18*%
X161710000Y-62880000D03*
%TO.P,U1,23,USB_D-/ADC2_CH8/GPIO19*%
%TO.N,USB_D-*%
X162560000Y-62880000D03*
%TO.P,U1,24,USB_D+/ADC2_CH9/GPIO20*%
%TO.N,USB_D+*%
X163410000Y-62880000D03*
%TO.P,U1,25,GPIO21*%
%TO.N,unconnected-(U1-Pad25)*%
X164260000Y-62880000D03*
%TO.P,U1,26,SPI_CS1/GPIO26*%
%TO.N,unconnected-(U1-Pad26)*%
X165110000Y-62880000D03*
%TO.P,U1,27,NC*%
%TO.N,unconnected-(U1-Pad27)*%
X165960000Y-62880000D03*
%TO.P,U1,28,GPIO33*%
%TO.N,unconnected-(U1-Pad28)*%
X166810000Y-62880000D03*
%TO.P,U1,29,GPIO34*%
%TO.N,unconnected-(U1-Pad29)*%
X167660000Y-62880000D03*
%TO.P,U1,30,GND*%
%TO.N,GND*%
X168510000Y-62880000D03*
D24*
%TO.P,U1,31,GPIO35*%
%TO.N,unconnected-(U1-Pad31)*%
X169560000Y-61830000D03*
%TO.P,U1,32,GPIO36*%
%TO.N,unconnected-(U1-Pad32)*%
X169560000Y-60980000D03*
%TO.P,U1,33,GPIO37*%
%TO.N,unconnected-(U1-Pad33)*%
X169560000Y-60130000D03*
%TO.P,U1,34,GPIO38*%
%TO.N,unconnected-(U1-Pad34)*%
X169560000Y-59280000D03*
%TO.P,U1,35,MTCK/JTAG/GPIO39*%
%TO.N,/IO39*%
X169560000Y-58430000D03*
%TO.P,U1,36,MTDO/JTAG/GPIO40*%
%TO.N,/IO40*%
X169560000Y-57580000D03*
%TO.P,U1,37,MTDI/JTAG/GPIO41*%
%TO.N,/IO41*%
X169560000Y-56730000D03*
%TO.P,U1,38,MTMS/JTAG/GPIO42*%
%TO.N,/IO42*%
X169560000Y-55880000D03*
%TO.P,U1,39,GPIO43/U0TXD/PROG*%
%TO.N,TX*%
X169560000Y-55030000D03*
%TO.P,U1,40,GPIO44/U0RXD/PROG*%
%TO.N,RX*%
X169560000Y-54180000D03*
%TO.P,U1,41,GPIO45*%
%TO.N,unconnected-(U1-Pad41)*%
X169560000Y-53330000D03*
%TO.P,U1,42,GND*%
%TO.N,GND*%
X169560000Y-52480000D03*
%TO.P,U1,43,GND*%
X169560000Y-51630000D03*
%TO.P,U1,44,GPIO46*%
%TO.N,unconnected-(U1-Pad44)*%
X169560000Y-50780000D03*
%TO.P,U1,45,CHIP/PU/RESET*%
%TO.N,RESET*%
X169560000Y-49930000D03*
D25*
%TO.P,U1,46,GND*%
%TO.N,GND*%
X168510000Y-48880000D03*
%TO.P,U1,47,GND*%
X167660000Y-48880000D03*
%TO.P,U1,48,GND*%
X166810000Y-48880000D03*
%TO.P,U1,49,GND*%
X165960000Y-48880000D03*
%TO.P,U1,50,GND*%
X165110000Y-48880000D03*
%TO.P,U1,51,GND*%
X164260000Y-48880000D03*
%TO.P,U1,52,GND*%
X163410000Y-48880000D03*
%TO.P,U1,53,GND*%
X162560000Y-48880000D03*
%TO.P,U1,54,GND*%
X161710000Y-48880000D03*
%TO.P,U1,55,GND*%
X160860000Y-48880000D03*
%TO.P,U1,56,GND*%
X160010000Y-48880000D03*
%TO.P,U1,57,GND*%
X159160000Y-48880000D03*
%TO.P,U1,58,GND*%
X158310000Y-48880000D03*
%TO.P,U1,59,GND*%
X157460000Y-48880000D03*
%TO.P,U1,60,GND*%
X156610000Y-48880000D03*
D26*
%TO.P,U1,61,GND*%
X162560000Y-54230000D03*
X164210000Y-54230000D03*
X162560000Y-55880000D03*
X164210000Y-55880000D03*
X160910000Y-57530000D03*
X162560000Y-57530000D03*
X160910000Y-55880000D03*
D27*
X160910000Y-54230000D03*
D26*
X164210000Y-57530000D03*
D28*
%TO.P,U1,62,GND*%
X155560000Y-48880000D03*
%TO.P,U1,63,GND*%
X155560000Y-62880000D03*
%TO.P,U1,64,GND*%
X169560000Y-62880000D03*
%TO.P,U1,65,GND*%
X169560000Y-48880000D03*
%TD*%
D22*
%TO.P,J3,1,Pin_1*%
%TO.N,/IO1*%
X153000000Y-49800000D03*
D23*
%TO.P,J3,2,Pin_2*%
%TO.N,/IO2*%
X153000000Y-52340000D03*
%TO.P,J3,3,Pin_3*%
%TO.N,/IO3*%
X153000000Y-54880000D03*
%TO.P,J3,4,Pin_4*%
%TO.N,/IO4*%
X153000000Y-57420000D03*
%TO.P,J3,5,Pin_5*%
%TO.N,/IO5*%
X153000000Y-59960000D03*
%TO.P,J3,6,Pin_6*%
%TO.N,/IO6*%
X153000000Y-62500000D03*
%TO.P,J3,7,Pin_7*%
%TO.N,/IO7*%
X153000000Y-65040000D03*
%TO.P,J3,8,Pin_8*%
%TO.N,/IO8*%
X153000000Y-67580000D03*
%TO.P,J3,9,Pin_9*%
%TO.N,/IO9*%
X153000000Y-70120000D03*
%TO.P,J3,10,Pin_10*%
%TO.N,/IO10*%
X153000000Y-72660000D03*
%TO.P,J3,11,Pin_11*%
%TO.N,/IO11*%
X153000000Y-75200000D03*
%TO.P,J3,12,Pin_12*%
%TO.N,/IO12*%
X153000000Y-77740000D03*
%TO.P,J3,13,Pin_13*%
%TO.N,/IO13*%
X153000000Y-80280000D03*
%TO.P,J3,14,Pin_14*%
%TO.N,/IO14*%
X153000000Y-82820000D03*
%TO.P,J3,15,Pin_15*%
%TO.N,/IO18*%
X153000000Y-85360000D03*
%TD*%
D15*
%TO.P,SW1,1,1*%
%TO.N,RESET*%
X163520000Y-69144999D03*
%TO.P,SW1,2,2*%
X163520000Y-64994999D03*
%TO.P,SW1,3,3*%
%TO.N,GND*%
X165670000Y-69144999D03*
%TO.P,SW1,4,4*%
X165670000Y-64994999D03*
%TD*%
M02*
