M48
; DRILL file {KiCad (6.0.9)} date Mon Nov 21 22:18:42 2022
; FORMAT={-:-/ absolute / metric / decimal}
; #@! TF.CreationDate,2022-11-21T22:18:42+02:00
; #@! TF.GenerationSoftware,Kicad,Pcbnew,(6.0.9)
; #@! TF.FileFunction,Plated,1,2,PTH
FMAT,2
METRIC
; #@! TA.AperFunction,Plated,PTH,ComponentDrill
T1C0.600
; #@! TA.AperFunction,Plated,PTH,ComponentDrill
T2C1.000
%
G90
G05
T2
X153.0Y-49.8
X153.0Y-52.34
X153.0Y-54.88
X153.0Y-57.42
X153.0Y-59.96
X153.0Y-62.5
X153.0Y-65.04
X153.0Y-67.58
X153.0Y-70.12
X153.0Y-72.66
X153.0Y-75.2
X153.0Y-77.74
X153.0Y-80.28
X153.0Y-82.82
X153.0Y-85.36
X172.0Y-49.8
X172.0Y-52.34
X172.0Y-54.88
X172.0Y-57.42
X172.0Y-59.96
X172.0Y-62.5
X172.0Y-65.04
X172.0Y-67.58
X172.0Y-70.12
X172.0Y-72.66
X172.0Y-75.2
X172.0Y-77.74
X172.0Y-80.28
X172.0Y-82.82
X172.0Y-85.36
T1
G00X152.37Y-90.225
M15
G01X152.37Y-91.325
M16
G05
G00X152.37Y-94.655
M15
G01X152.37Y-95.255
M16
G05
G00X161.01Y-90.225
M15
G01X161.01Y-91.325
M16
G05
G00X161.01Y-94.655
M15
G01X161.01Y-95.255
M16
G05
G00X164.18Y-90.225
M15
G01X164.18Y-91.325
M16
G05
G00X164.18Y-94.655
M15
G01X164.18Y-95.255
M16
G05
G00X172.82Y-90.225
M15
G01X172.82Y-91.325
M16
G05
G00X172.82Y-94.655
M15
G01X172.82Y-95.255
M16
G05
T0
M30
