%TF.GenerationSoftware,KiCad,Pcbnew,(6.0.9)*%
%TF.CreationDate,2022-11-21T22:18:44+02:00*%
%TF.ProjectId,esp32s2_devboard,65737033-3273-4325-9f64-6576626f6172,rev?*%
%TF.SameCoordinates,Original*%
%TF.FileFunction,Paste,Top*%
%TF.FilePolarity,Positive*%
%FSLAX46Y46*%
G04 Gerber Fmt 4.6, Leading zero omitted, Abs format (unit mm)*
G04 Created by KiCad (PCBNEW (6.0.9)) date 2022-11-21 22:18:44*
%MOMM*%
%LPD*%
G01*
G04 APERTURE LIST*
G04 Aperture macros list*
%AMRoundRect*
0 Rectangle with rounded corners*
0 $1 Rounding radius*
0 $2 $3 $4 $5 $6 $7 $8 $9 X,Y pos of 4 corners*
0 Add a 4 corners polygon primitive as box body*
4,1,4,$2,$3,$4,$5,$6,$7,$8,$9,$2,$3,0*
0 Add four circle primitives for the rounded corners*
1,1,$1+$1,$2,$3*
1,1,$1+$1,$4,$5*
1,1,$1+$1,$6,$7*
1,1,$1+$1,$8,$9*
0 Add four rect primitives between the rounded corners*
20,1,$1+$1,$2,$3,$4,$5,0*
20,1,$1+$1,$4,$5,$6,$7,0*
20,1,$1+$1,$6,$7,$8,$9,0*
20,1,$1+$1,$8,$9,$2,$3,0*%
%AMFreePoly0*
4,1,6,0.600000,-0.600000,-0.600000,-0.600000,-0.600000,0.000000,0.000000,0.600000,0.600000,0.600000,0.600000,-0.600000,0.600000,-0.600000,$1*%
G04 Aperture macros list end*
%ADD10R,0.700000X1.000000*%
%ADD11R,0.700000X0.600000*%
%ADD12RoundRect,0.218750X0.256250X-0.218750X0.256250X0.218750X-0.256250X0.218750X-0.256250X-0.218750X0*%
%ADD13RoundRect,0.225000X0.225000X0.250000X-0.225000X0.250000X-0.225000X-0.250000X0.225000X-0.250000X0*%
%ADD14RoundRect,0.225000X-0.225000X-0.250000X0.225000X-0.250000X0.225000X0.250000X-0.225000X0.250000X0*%
%ADD15R,0.650000X1.050000*%
%ADD16RoundRect,0.150000X-0.512500X-0.150000X0.512500X-0.150000X0.512500X0.150000X-0.512500X0.150000X0*%
%ADD17RoundRect,0.150000X-0.150000X0.825000X-0.150000X-0.825000X0.150000X-0.825000X0.150000X0.825000X0*%
%ADD18R,0.600000X1.450000*%
%ADD19R,0.300000X1.450000*%
%ADD20R,0.800000X0.400000*%
%ADD21R,0.400000X0.800000*%
%ADD22R,1.200000X1.200000*%
%ADD23FreePoly0,0.000000*%
%ADD24R,0.800000X0.800000*%
G04 APERTURE END LIST*
D10*
%TO.C,D2*%
X155790000Y-86054999D03*
D11*
X155790000Y-87754999D03*
X157790000Y-87754999D03*
X157790000Y-85854999D03*
%TD*%
D12*
%TO.C,F1*%
X159400000Y-86237500D03*
X159400000Y-84662500D03*
%TD*%
D13*
%TO.C,C6*%
X163697500Y-83157501D03*
X162147500Y-83157501D03*
%TD*%
D14*
%TO.C,C3*%
X161422500Y-88132500D03*
X162972500Y-88132500D03*
%TD*%
D10*
%TO.C,D1*%
X167500000Y-86054999D03*
D11*
X167500000Y-87754999D03*
X169500000Y-87754999D03*
X169500000Y-85854999D03*
%TD*%
D15*
%TO.C,SW2*%
X159220000Y-69145000D03*
X159220000Y-64995000D03*
X161370000Y-69145000D03*
X161370000Y-64995000D03*
%TD*%
D16*
%TO.C,U2*%
X161422500Y-84662500D03*
X161422500Y-85612500D03*
X161422500Y-86562500D03*
X163697500Y-86562500D03*
X163697500Y-84662500D03*
%TD*%
D12*
%TO.C,D3*%
X162560000Y-93304999D03*
X162560000Y-91729999D03*
%TD*%
D17*
%TO.C,U3*%
X166945000Y-71970000D03*
X165675000Y-71970000D03*
X164405000Y-71970000D03*
X163135000Y-71970000D03*
X161865000Y-71970000D03*
X160595000Y-71970000D03*
X159325000Y-71970000D03*
X158055000Y-71970000D03*
X158055000Y-76920000D03*
X159325000Y-76920000D03*
X160595000Y-76920000D03*
X161865000Y-76920000D03*
X163135000Y-76920000D03*
X164405000Y-76920000D03*
X165675000Y-76920000D03*
X166945000Y-76920000D03*
%TD*%
D18*
%TO.C,J2*%
X153440000Y-89859999D03*
X154240000Y-89859999D03*
D19*
X155440000Y-89859999D03*
X156440000Y-89859999D03*
X156940000Y-89859999D03*
X157940000Y-89859999D03*
D18*
X159140000Y-89859999D03*
X159940000Y-89859999D03*
X159940000Y-89859999D03*
X159140000Y-89859999D03*
D19*
X158440000Y-89859999D03*
X157440000Y-89859999D03*
X155940000Y-89859999D03*
X154940000Y-89859999D03*
D18*
X154240000Y-89859999D03*
X153440000Y-89859999D03*
%TD*%
%TO.C,J1*%
X165250000Y-89859999D03*
X166050000Y-89859999D03*
D19*
X167250000Y-89859999D03*
X168250000Y-89859999D03*
X168750000Y-89859999D03*
X169750000Y-89859999D03*
D18*
X170950000Y-89859999D03*
X171750000Y-89859999D03*
X171750000Y-89859999D03*
X170950000Y-89859999D03*
D19*
X170250000Y-89859999D03*
X169250000Y-89859999D03*
X167750000Y-89859999D03*
X166750000Y-89859999D03*
D18*
X166050000Y-89859999D03*
X165250000Y-89859999D03*
%TD*%
D20*
%TO.C,U1*%
X155560000Y-49930000D03*
X155560000Y-50780000D03*
X155560000Y-51630000D03*
X155560000Y-52480000D03*
X155560000Y-53330000D03*
X155560000Y-54180000D03*
X155560000Y-55030000D03*
X155560000Y-55880000D03*
X155560000Y-56730000D03*
X155560000Y-57580000D03*
X155560000Y-58430000D03*
X155560000Y-59280000D03*
X155560000Y-60130000D03*
X155560000Y-60980000D03*
X155560000Y-61830000D03*
D21*
X156610000Y-62880000D03*
X157460000Y-62880000D03*
X158310000Y-62880000D03*
X159160000Y-62880000D03*
X160010000Y-62880000D03*
X160860000Y-62880000D03*
X161710000Y-62880000D03*
X162560000Y-62880000D03*
X163410000Y-62880000D03*
X164260000Y-62880000D03*
X165110000Y-62880000D03*
X165960000Y-62880000D03*
X166810000Y-62880000D03*
X167660000Y-62880000D03*
X168510000Y-62880000D03*
D20*
X169560000Y-61830000D03*
X169560000Y-60980000D03*
X169560000Y-60130000D03*
X169560000Y-59280000D03*
X169560000Y-58430000D03*
X169560000Y-57580000D03*
X169560000Y-56730000D03*
X169560000Y-55880000D03*
X169560000Y-55030000D03*
X169560000Y-54180000D03*
X169560000Y-53330000D03*
X169560000Y-52480000D03*
X169560000Y-51630000D03*
X169560000Y-50780000D03*
X169560000Y-49930000D03*
D21*
X168510000Y-48880000D03*
X167660000Y-48880000D03*
X166810000Y-48880000D03*
X165960000Y-48880000D03*
X165110000Y-48880000D03*
X164260000Y-48880000D03*
X163410000Y-48880000D03*
X162560000Y-48880000D03*
X161710000Y-48880000D03*
X160860000Y-48880000D03*
X160010000Y-48880000D03*
X159160000Y-48880000D03*
X158310000Y-48880000D03*
X157460000Y-48880000D03*
X156610000Y-48880000D03*
D22*
X162560000Y-54230000D03*
X164210000Y-54230000D03*
X162560000Y-55880000D03*
X164210000Y-55880000D03*
X160910000Y-57530000D03*
X162560000Y-57530000D03*
X160910000Y-55880000D03*
D23*
X160910000Y-54230000D03*
D22*
X164210000Y-57530000D03*
D24*
X155560000Y-48880000D03*
X155560000Y-62880000D03*
X169560000Y-62880000D03*
X169560000Y-48880000D03*
%TD*%
D15*
%TO.C,SW1*%
X163520000Y-69144999D03*
X163520000Y-64994999D03*
X165670000Y-69144999D03*
X165670000Y-64994999D03*
%TD*%
M02*
