%TF.GenerationSoftware,KiCad,Pcbnew,(6.0.9)*%
%TF.CreationDate,2022-11-21T22:18:44+02:00*%
%TF.ProjectId,esp32s2_devboard,65737033-3273-4325-9f64-6576626f6172,rev?*%
%TF.SameCoordinates,Original*%
%TF.FileFunction,Legend,Top*%
%TF.FilePolarity,Positive*%
%FSLAX46Y46*%
G04 Gerber Fmt 4.6, Leading zero omitted, Abs format (unit mm)*
G04 Created by KiCad (PCBNEW (6.0.9)) date 2022-11-21 22:18:44*
%MOMM*%
%LPD*%
G01*
G04 APERTURE LIST*
%ADD10C,0.150000*%
%ADD11C,0.120000*%
%ADD12C,0.127000*%
G04 APERTURE END LIST*
D10*
X166442619Y-65472619D02*
X166918809Y-65139285D01*
X166442619Y-64901190D02*
X167442619Y-64901190D01*
X167442619Y-65282142D01*
X167395000Y-65377380D01*
X167347380Y-65425000D01*
X167252142Y-65472619D01*
X167109285Y-65472619D01*
X167014047Y-65425000D01*
X166966428Y-65377380D01*
X166918809Y-65282142D01*
X166918809Y-64901190D01*
X166966428Y-65901190D02*
X166966428Y-66234523D01*
X166442619Y-66377380D02*
X166442619Y-65901190D01*
X167442619Y-65901190D01*
X167442619Y-66377380D01*
X166490238Y-66758333D02*
X166442619Y-66901190D01*
X166442619Y-67139285D01*
X166490238Y-67234523D01*
X166537857Y-67282142D01*
X166633095Y-67329761D01*
X166728333Y-67329761D01*
X166823571Y-67282142D01*
X166871190Y-67234523D01*
X166918809Y-67139285D01*
X166966428Y-66948809D01*
X167014047Y-66853571D01*
X167061666Y-66805952D01*
X167156904Y-66758333D01*
X167252142Y-66758333D01*
X167347380Y-66805952D01*
X167395000Y-66853571D01*
X167442619Y-66948809D01*
X167442619Y-67186904D01*
X167395000Y-67329761D01*
X166966428Y-67758333D02*
X166966428Y-68091666D01*
X166442619Y-68234523D02*
X166442619Y-67758333D01*
X167442619Y-67758333D01*
X167442619Y-68234523D01*
X167442619Y-68520238D02*
X167442619Y-69091666D01*
X166442619Y-68805952D02*
X167442619Y-68805952D01*
X173238095Y-88347619D02*
X172619047Y-88347619D01*
X172952380Y-87966666D01*
X172809523Y-87966666D01*
X172714285Y-87919047D01*
X172666666Y-87871428D01*
X172619047Y-87776190D01*
X172619047Y-87538095D01*
X172666666Y-87442857D01*
X172714285Y-87395238D01*
X172809523Y-87347619D01*
X173095238Y-87347619D01*
X173190476Y-87395238D01*
X173238095Y-87442857D01*
X172333333Y-88347619D02*
X172000000Y-87347619D01*
X171666666Y-88347619D01*
X171428571Y-88347619D02*
X170809523Y-88347619D01*
X171142857Y-87966666D01*
X171000000Y-87966666D01*
X170904761Y-87919047D01*
X170857142Y-87871428D01*
X170809523Y-87776190D01*
X170809523Y-87538095D01*
X170857142Y-87442857D01*
X170904761Y-87395238D01*
X171000000Y-87347619D01*
X171285714Y-87347619D01*
X171380952Y-87395238D01*
X171428571Y-87442857D01*
X153190476Y-88347619D02*
X153666666Y-88347619D01*
X153714285Y-87871428D01*
X153666666Y-87919047D01*
X153571428Y-87966666D01*
X153333333Y-87966666D01*
X153238095Y-87919047D01*
X153190476Y-87871428D01*
X153142857Y-87776190D01*
X153142857Y-87538095D01*
X153190476Y-87442857D01*
X153238095Y-87395238D01*
X153333333Y-87347619D01*
X153571428Y-87347619D01*
X153666666Y-87395238D01*
X153714285Y-87442857D01*
X152857142Y-88347619D02*
X152523809Y-87347619D01*
X152190476Y-88347619D01*
X163107619Y-94361904D02*
X163107619Y-94980952D01*
X162726666Y-94647619D01*
X162726666Y-94790476D01*
X162679047Y-94885714D01*
X162631428Y-94933333D01*
X162536190Y-94980952D01*
X162298095Y-94980952D01*
X162202857Y-94933333D01*
X162155238Y-94885714D01*
X162107619Y-94790476D01*
X162107619Y-94504761D01*
X162155238Y-94409523D01*
X162202857Y-94361904D01*
X163107619Y-95266666D02*
X162107619Y-95600000D01*
X163107619Y-95933333D01*
X163107619Y-96171428D02*
X163107619Y-96790476D01*
X162726666Y-96457142D01*
X162726666Y-96600000D01*
X162679047Y-96695238D01*
X162631428Y-96742857D01*
X162536190Y-96790476D01*
X162298095Y-96790476D01*
X162202857Y-96742857D01*
X162155238Y-96695238D01*
X162107619Y-96600000D01*
X162107619Y-96314285D01*
X162155238Y-96219047D01*
X162202857Y-96171428D01*
X166997380Y-84361904D02*
X167806904Y-84361904D01*
X167902142Y-84314285D01*
X167949761Y-84266666D01*
X167997380Y-84171428D01*
X167997380Y-83980952D01*
X167949761Y-83885714D01*
X167902142Y-83838095D01*
X167806904Y-83790476D01*
X166997380Y-83790476D01*
X167949761Y-83361904D02*
X167997380Y-83219047D01*
X167997380Y-82980952D01*
X167949761Y-82885714D01*
X167902142Y-82838095D01*
X167806904Y-82790476D01*
X167711666Y-82790476D01*
X167616428Y-82838095D01*
X167568809Y-82885714D01*
X167521190Y-82980952D01*
X167473571Y-83171428D01*
X167425952Y-83266666D01*
X167378333Y-83314285D01*
X167283095Y-83361904D01*
X167187857Y-83361904D01*
X167092619Y-83314285D01*
X167045000Y-83266666D01*
X166997380Y-83171428D01*
X166997380Y-82933333D01*
X167045000Y-82790476D01*
X167473571Y-82028571D02*
X167521190Y-81885714D01*
X167568809Y-81838095D01*
X167664047Y-81790476D01*
X167806904Y-81790476D01*
X167902142Y-81838095D01*
X167949761Y-81885714D01*
X167997380Y-81980952D01*
X167997380Y-82361904D01*
X166997380Y-82361904D01*
X166997380Y-82028571D01*
X167045000Y-81933333D01*
X167092619Y-81885714D01*
X167187857Y-81838095D01*
X167283095Y-81838095D01*
X167378333Y-81885714D01*
X167425952Y-81933333D01*
X167473571Y-82028571D01*
X167473571Y-82361904D01*
X168607380Y-84695238D02*
X169416904Y-84695238D01*
X169512142Y-84647619D01*
X169559761Y-84600000D01*
X169607380Y-84504761D01*
X169607380Y-84314285D01*
X169559761Y-84219047D01*
X169512142Y-84171428D01*
X169416904Y-84123809D01*
X168607380Y-84123809D01*
X169321666Y-83695238D02*
X169321666Y-83219047D01*
X169607380Y-83790476D02*
X168607380Y-83457142D01*
X169607380Y-83123809D01*
X169607380Y-82219047D02*
X169131190Y-82552380D01*
X169607380Y-82790476D02*
X168607380Y-82790476D01*
X168607380Y-82409523D01*
X168655000Y-82314285D01*
X168702619Y-82266666D01*
X168797857Y-82219047D01*
X168940714Y-82219047D01*
X169035952Y-82266666D01*
X169083571Y-82314285D01*
X169131190Y-82409523D01*
X169131190Y-82790476D01*
X168607380Y-81933333D02*
X168607380Y-81361904D01*
X169607380Y-81647619D02*
X168607380Y-81647619D01*
X157773571Y-68282142D02*
X157821190Y-68139285D01*
X157868809Y-68091666D01*
X157964047Y-68044047D01*
X158106904Y-68044047D01*
X158202142Y-68091666D01*
X158249761Y-68139285D01*
X158297380Y-68234523D01*
X158297380Y-68615476D01*
X157297380Y-68615476D01*
X157297380Y-68282142D01*
X157345000Y-68186904D01*
X157392619Y-68139285D01*
X157487857Y-68091666D01*
X157583095Y-68091666D01*
X157678333Y-68139285D01*
X157725952Y-68186904D01*
X157773571Y-68282142D01*
X157773571Y-68615476D01*
X157297380Y-67425000D02*
X157297380Y-67234523D01*
X157345000Y-67139285D01*
X157440238Y-67044047D01*
X157630714Y-66996428D01*
X157964047Y-66996428D01*
X158154523Y-67044047D01*
X158249761Y-67139285D01*
X158297380Y-67234523D01*
X158297380Y-67425000D01*
X158249761Y-67520238D01*
X158154523Y-67615476D01*
X157964047Y-67663095D01*
X157630714Y-67663095D01*
X157440238Y-67615476D01*
X157345000Y-67520238D01*
X157297380Y-67425000D01*
X157297380Y-66377380D02*
X157297380Y-66186904D01*
X157345000Y-66091666D01*
X157440238Y-65996428D01*
X157630714Y-65948809D01*
X157964047Y-65948809D01*
X158154523Y-65996428D01*
X158249761Y-66091666D01*
X158297380Y-66186904D01*
X158297380Y-66377380D01*
X158249761Y-66472619D01*
X158154523Y-66567857D01*
X157964047Y-66615476D01*
X157630714Y-66615476D01*
X157440238Y-66567857D01*
X157345000Y-66472619D01*
X157297380Y-66377380D01*
X157297380Y-65663095D02*
X157297380Y-65091666D01*
X158297380Y-65377380D02*
X157297380Y-65377380D01*
X155297380Y-84561904D02*
X156106904Y-84561904D01*
X156202142Y-84514285D01*
X156249761Y-84466666D01*
X156297380Y-84371428D01*
X156297380Y-84180952D01*
X156249761Y-84085714D01*
X156202142Y-84038095D01*
X156106904Y-83990476D01*
X155297380Y-83990476D01*
X156249761Y-83561904D02*
X156297380Y-83419047D01*
X156297380Y-83180952D01*
X156249761Y-83085714D01*
X156202142Y-83038095D01*
X156106904Y-82990476D01*
X156011666Y-82990476D01*
X155916428Y-83038095D01*
X155868809Y-83085714D01*
X155821190Y-83180952D01*
X155773571Y-83371428D01*
X155725952Y-83466666D01*
X155678333Y-83514285D01*
X155583095Y-83561904D01*
X155487857Y-83561904D01*
X155392619Y-83514285D01*
X155345000Y-83466666D01*
X155297380Y-83371428D01*
X155297380Y-83133333D01*
X155345000Y-82990476D01*
X155773571Y-82228571D02*
X155821190Y-82085714D01*
X155868809Y-82038095D01*
X155964047Y-81990476D01*
X156106904Y-81990476D01*
X156202142Y-82038095D01*
X156249761Y-82085714D01*
X156297380Y-82180952D01*
X156297380Y-82561904D01*
X155297380Y-82561904D01*
X155297380Y-82228571D01*
X155345000Y-82133333D01*
X155392619Y-82085714D01*
X155487857Y-82038095D01*
X155583095Y-82038095D01*
X155678333Y-82085714D01*
X155725952Y-82133333D01*
X155773571Y-82228571D01*
X155773571Y-82561904D01*
X156907380Y-84276190D02*
X156907380Y-84085714D01*
X156955000Y-83990476D01*
X157050238Y-83895238D01*
X157240714Y-83847619D01*
X157574047Y-83847619D01*
X157764523Y-83895238D01*
X157859761Y-83990476D01*
X157907380Y-84085714D01*
X157907380Y-84276190D01*
X157859761Y-84371428D01*
X157764523Y-84466666D01*
X157574047Y-84514285D01*
X157240714Y-84514285D01*
X157050238Y-84466666D01*
X156955000Y-84371428D01*
X156907380Y-84276190D01*
X156907380Y-83561904D02*
X156907380Y-82990476D01*
X157907380Y-83276190D02*
X156907380Y-83276190D01*
X156955000Y-82133333D02*
X156907380Y-82228571D01*
X156907380Y-82371428D01*
X156955000Y-82514285D01*
X157050238Y-82609523D01*
X157145476Y-82657142D01*
X157335952Y-82704761D01*
X157478809Y-82704761D01*
X157669285Y-82657142D01*
X157764523Y-82609523D01*
X157859761Y-82514285D01*
X157907380Y-82371428D01*
X157907380Y-82276190D01*
X157859761Y-82133333D01*
X157812142Y-82085714D01*
X157478809Y-82085714D01*
X157478809Y-82276190D01*
%TO.C,F1*%
X159328571Y-83283333D02*
X159328571Y-83616666D01*
X159852380Y-83616666D02*
X158852380Y-83616666D01*
X158852380Y-83140476D01*
X159852380Y-82235714D02*
X159852380Y-82807142D01*
X159852380Y-82521428D02*
X158852380Y-82521428D01*
X158995238Y-82616666D01*
X159090476Y-82711904D01*
X159138095Y-82807142D01*
%TO.C,C6*%
X162755833Y-82074643D02*
X162708214Y-82122262D01*
X162565357Y-82169881D01*
X162470119Y-82169881D01*
X162327261Y-82122262D01*
X162232023Y-82027024D01*
X162184404Y-81931786D01*
X162136785Y-81741310D01*
X162136785Y-81598453D01*
X162184404Y-81407977D01*
X162232023Y-81312739D01*
X162327261Y-81217501D01*
X162470119Y-81169881D01*
X162565357Y-81169881D01*
X162708214Y-81217501D01*
X162755833Y-81265120D01*
X163612976Y-81169881D02*
X163422500Y-81169881D01*
X163327261Y-81217501D01*
X163279642Y-81265120D01*
X163184404Y-81407977D01*
X163136785Y-81598453D01*
X163136785Y-81979405D01*
X163184404Y-82074643D01*
X163232023Y-82122262D01*
X163327261Y-82169881D01*
X163517738Y-82169881D01*
X163612976Y-82122262D01*
X163660595Y-82074643D01*
X163708214Y-81979405D01*
X163708214Y-81741310D01*
X163660595Y-81646072D01*
X163612976Y-81598453D01*
X163517738Y-81550834D01*
X163327261Y-81550834D01*
X163232023Y-81598453D01*
X163184404Y-81646072D01*
X163136785Y-81741310D01*
%TO.C,C3*%
X162383333Y-89957142D02*
X162335714Y-90004761D01*
X162192857Y-90052380D01*
X162097619Y-90052380D01*
X161954761Y-90004761D01*
X161859523Y-89909523D01*
X161811904Y-89814285D01*
X161764285Y-89623809D01*
X161764285Y-89480952D01*
X161811904Y-89290476D01*
X161859523Y-89195238D01*
X161954761Y-89100000D01*
X162097619Y-89052380D01*
X162192857Y-89052380D01*
X162335714Y-89100000D01*
X162383333Y-89147619D01*
X162716666Y-89052380D02*
X163335714Y-89052380D01*
X163002380Y-89433333D01*
X163145238Y-89433333D01*
X163240476Y-89480952D01*
X163288095Y-89528571D01*
X163335714Y-89623809D01*
X163335714Y-89861904D01*
X163288095Y-89957142D01*
X163240476Y-90004761D01*
X163145238Y-90052380D01*
X162859523Y-90052380D01*
X162764285Y-90004761D01*
X162716666Y-89957142D01*
%TO.C,SW2*%
X160700405Y-68405454D02*
X160748100Y-68262370D01*
X160748100Y-68023896D01*
X160700405Y-67928506D01*
X160652711Y-67880811D01*
X160557321Y-67833116D01*
X160461931Y-67833116D01*
X160366542Y-67880811D01*
X160318847Y-67928506D01*
X160271152Y-68023896D01*
X160223457Y-68214675D01*
X160175762Y-68310065D01*
X160128068Y-68357759D01*
X160032678Y-68405454D01*
X159937288Y-68405454D01*
X159841899Y-68357759D01*
X159794204Y-68310065D01*
X159746509Y-68214675D01*
X159746509Y-67976201D01*
X159794204Y-67833116D01*
X159746509Y-67499253D02*
X160748100Y-67260779D01*
X160032678Y-67070000D01*
X160748100Y-66879220D01*
X159746509Y-66640746D01*
X159841899Y-66306883D02*
X159794204Y-66259188D01*
X159746509Y-66163798D01*
X159746509Y-65925324D01*
X159794204Y-65829934D01*
X159841899Y-65782240D01*
X159937288Y-65734545D01*
X160032678Y-65734545D01*
X160175762Y-65782240D01*
X160748100Y-66354577D01*
X160748100Y-65734545D01*
%TO.C,U2*%
X164952380Y-86394404D02*
X165761904Y-86394404D01*
X165857142Y-86346785D01*
X165904761Y-86299166D01*
X165952380Y-86203928D01*
X165952380Y-86013452D01*
X165904761Y-85918214D01*
X165857142Y-85870595D01*
X165761904Y-85822976D01*
X164952380Y-85822976D01*
X165047619Y-85394404D02*
X165000000Y-85346785D01*
X164952380Y-85251547D01*
X164952380Y-85013452D01*
X165000000Y-84918214D01*
X165047619Y-84870595D01*
X165142857Y-84822976D01*
X165238095Y-84822976D01*
X165380952Y-84870595D01*
X165952380Y-85442023D01*
X165952380Y-84822976D01*
%TO.C,U3*%
X161833095Y-73897380D02*
X161833095Y-74706904D01*
X161880714Y-74802142D01*
X161928333Y-74849761D01*
X162023571Y-74897380D01*
X162214047Y-74897380D01*
X162309285Y-74849761D01*
X162356904Y-74802142D01*
X162404523Y-74706904D01*
X162404523Y-73897380D01*
X162785476Y-73897380D02*
X163404523Y-73897380D01*
X163071190Y-74278333D01*
X163214047Y-74278333D01*
X163309285Y-74325952D01*
X163356904Y-74373571D01*
X163404523Y-74468809D01*
X163404523Y-74706904D01*
X163356904Y-74802142D01*
X163309285Y-74849761D01*
X163214047Y-74897380D01*
X162928333Y-74897380D01*
X162833095Y-74849761D01*
X162785476Y-74802142D01*
%TO.C,J2*%
X156356666Y-93357379D02*
X156356666Y-94071665D01*
X156309047Y-94214522D01*
X156213809Y-94309760D01*
X156070952Y-94357379D01*
X155975714Y-94357379D01*
X156785238Y-93452618D02*
X156832857Y-93404999D01*
X156928095Y-93357379D01*
X157166190Y-93357379D01*
X157261428Y-93404999D01*
X157309047Y-93452618D01*
X157356666Y-93547856D01*
X157356666Y-93643094D01*
X157309047Y-93785951D01*
X156737619Y-94357379D01*
X157356666Y-94357379D01*
%TO.C,J1*%
X168166666Y-93357379D02*
X168166666Y-94071665D01*
X168119047Y-94214522D01*
X168023809Y-94309760D01*
X167880952Y-94357379D01*
X167785714Y-94357379D01*
X169166666Y-94357379D02*
X168595238Y-94357379D01*
X168880952Y-94357379D02*
X168880952Y-93357379D01*
X168785714Y-93500237D01*
X168690476Y-93595475D01*
X168595238Y-93643094D01*
%TO.C,U1*%
X161798095Y-41932380D02*
X161798095Y-42741904D01*
X161845714Y-42837142D01*
X161893333Y-42884761D01*
X161988571Y-42932380D01*
X162179047Y-42932380D01*
X162274285Y-42884761D01*
X162321904Y-42837142D01*
X162369523Y-42741904D01*
X162369523Y-41932380D01*
X163369523Y-42932380D02*
X162798095Y-42932380D01*
X163083809Y-42932380D02*
X163083809Y-41932380D01*
X162988571Y-42075238D01*
X162893333Y-42170476D01*
X162798095Y-42218095D01*
X157798095Y-45596666D02*
X158274285Y-45596666D01*
X157702857Y-45882380D02*
X158036190Y-44882380D01*
X158369523Y-45882380D01*
X158702857Y-45215714D02*
X158702857Y-45882380D01*
X158702857Y-45310952D02*
X158750476Y-45263333D01*
X158845714Y-45215714D01*
X158988571Y-45215714D01*
X159083809Y-45263333D01*
X159131428Y-45358571D01*
X159131428Y-45882380D01*
X159464761Y-45215714D02*
X159845714Y-45215714D01*
X159607619Y-44882380D02*
X159607619Y-45739523D01*
X159655238Y-45834761D01*
X159750476Y-45882380D01*
X159845714Y-45882380D01*
X160560000Y-45834761D02*
X160464761Y-45882380D01*
X160274285Y-45882380D01*
X160179047Y-45834761D01*
X160131428Y-45739523D01*
X160131428Y-45358571D01*
X160179047Y-45263333D01*
X160274285Y-45215714D01*
X160464761Y-45215714D01*
X160560000Y-45263333D01*
X160607619Y-45358571D01*
X160607619Y-45453809D01*
X160131428Y-45549047D01*
X161036190Y-45215714D02*
X161036190Y-45882380D01*
X161036190Y-45310952D02*
X161083809Y-45263333D01*
X161179047Y-45215714D01*
X161321904Y-45215714D01*
X161417142Y-45263333D01*
X161464761Y-45358571D01*
X161464761Y-45882380D01*
X161940952Y-45215714D02*
X161940952Y-45882380D01*
X161940952Y-45310952D02*
X161988571Y-45263333D01*
X162083809Y-45215714D01*
X162226666Y-45215714D01*
X162321904Y-45263333D01*
X162369523Y-45358571D01*
X162369523Y-45882380D01*
X163274285Y-45882380D02*
X163274285Y-45358571D01*
X163226666Y-45263333D01*
X163131428Y-45215714D01*
X162940952Y-45215714D01*
X162845714Y-45263333D01*
X163274285Y-45834761D02*
X163179047Y-45882380D01*
X162940952Y-45882380D01*
X162845714Y-45834761D01*
X162798095Y-45739523D01*
X162798095Y-45644285D01*
X162845714Y-45549047D01*
X162940952Y-45501428D01*
X163179047Y-45501428D01*
X163274285Y-45453809D01*
X164464761Y-45596666D02*
X164940952Y-45596666D01*
X164369523Y-45882380D02*
X164702857Y-44882380D01*
X165036190Y-45882380D01*
X165369523Y-45882380D02*
X165369523Y-45215714D01*
X165369523Y-45406190D02*
X165417142Y-45310952D01*
X165464761Y-45263333D01*
X165560000Y-45215714D01*
X165655238Y-45215714D01*
X166369523Y-45834761D02*
X166274285Y-45882380D01*
X166083809Y-45882380D01*
X165988571Y-45834761D01*
X165940952Y-45739523D01*
X165940952Y-45358571D01*
X165988571Y-45263333D01*
X166083809Y-45215714D01*
X166274285Y-45215714D01*
X166369523Y-45263333D01*
X166417142Y-45358571D01*
X166417142Y-45453809D01*
X165940952Y-45549047D01*
X167274285Y-45882380D02*
X167274285Y-45358571D01*
X167226666Y-45263333D01*
X167131428Y-45215714D01*
X166940952Y-45215714D01*
X166845714Y-45263333D01*
X167274285Y-45834761D02*
X167179047Y-45882380D01*
X166940952Y-45882380D01*
X166845714Y-45834761D01*
X166798095Y-45739523D01*
X166798095Y-45644285D01*
X166845714Y-45549047D01*
X166940952Y-45501428D01*
X167179047Y-45501428D01*
X167274285Y-45453809D01*
%TO.C,SW1*%
X165000405Y-68405453D02*
X165048100Y-68262369D01*
X165048100Y-68023895D01*
X165000405Y-67928505D01*
X164952711Y-67880810D01*
X164857321Y-67833115D01*
X164761931Y-67833115D01*
X164666542Y-67880810D01*
X164618847Y-67928505D01*
X164571152Y-68023895D01*
X164523457Y-68214674D01*
X164475762Y-68310064D01*
X164428068Y-68357758D01*
X164332678Y-68405453D01*
X164237288Y-68405453D01*
X164141899Y-68357758D01*
X164094204Y-68310064D01*
X164046509Y-68214674D01*
X164046509Y-67976200D01*
X164094204Y-67833115D01*
X164046509Y-67499252D02*
X165048100Y-67260778D01*
X164332678Y-67069999D01*
X165048100Y-66879219D01*
X164046509Y-66640745D01*
X165048100Y-65734544D02*
X165048100Y-66306882D01*
X165048100Y-66020713D02*
X164046509Y-66020713D01*
X164189594Y-66116102D01*
X164284983Y-66211492D01*
X164332678Y-66306882D01*
D11*
%TO.C,D2*%
X156140000Y-88364999D02*
X157440000Y-88364999D01*
X157440000Y-85244999D02*
X155440000Y-85244999D01*
%TO.C,F1*%
X158890000Y-85612779D02*
X158890000Y-85287221D01*
X159910000Y-85612779D02*
X159910000Y-85287221D01*
%TO.C,C6*%
X163063080Y-83667501D02*
X162781920Y-83667501D01*
X163063080Y-82647501D02*
X162781920Y-82647501D01*
%TO.C,C3*%
X162056920Y-88642500D02*
X162338080Y-88642500D01*
X162056920Y-87622500D02*
X162338080Y-87622500D01*
%TO.C,D1*%
X167850000Y-88364999D02*
X169150000Y-88364999D01*
X169150000Y-85244999D02*
X167150000Y-85244999D01*
D12*
%TO.C,SW2*%
X159795000Y-64970000D02*
X160795000Y-64970000D01*
X159795000Y-69170000D02*
X160795000Y-69170000D01*
X161895000Y-68320000D02*
X161895000Y-65820000D01*
X158695000Y-68320000D02*
X158695000Y-65820000D01*
X159256803Y-69970000D02*
G75*
G03*
X159256803Y-69970000I-111803J0D01*
G01*
X159195000Y-69920000D02*
G75*
G03*
X159195000Y-69920000I-50000J0D01*
G01*
D11*
%TO.C,U2*%
X162560000Y-87172500D02*
X163360000Y-87172500D01*
X162560000Y-84052500D02*
X163360000Y-84052500D01*
X162560000Y-84052500D02*
X160760000Y-84052500D01*
X162560000Y-87172500D02*
X161760000Y-87172500D01*
%TO.C,D3*%
X161825000Y-91717499D02*
X161825000Y-94002499D01*
X161825000Y-94002499D02*
X163295000Y-94002499D01*
X163295000Y-94002499D02*
X163295000Y-91717499D01*
%TO.C,U3*%
X167560000Y-74445000D02*
X167560000Y-70995000D01*
X157440000Y-74445000D02*
X157440000Y-72495000D01*
X157440000Y-74445000D02*
X157440000Y-76395000D01*
X167560000Y-74445000D02*
X167560000Y-76395000D01*
%TO.C,J2*%
X151990000Y-97804999D02*
X161390000Y-97804999D01*
X161390000Y-92004999D02*
X161390000Y-94004999D01*
X151990000Y-95904999D02*
X151990000Y-97804999D01*
X151990000Y-92004999D02*
X151990000Y-94004999D01*
X161390000Y-95904999D02*
X161390000Y-97804999D01*
%TO.C,J4*%
X170670000Y-49800000D02*
X170670000Y-48470000D01*
X170670000Y-51070000D02*
X170670000Y-86690000D01*
X173330000Y-51070000D02*
X173330000Y-86690000D01*
X170670000Y-51070000D02*
X173330000Y-51070000D01*
X170670000Y-48470000D02*
X172000000Y-48470000D01*
X170670000Y-86690000D02*
X173330000Y-86690000D01*
%TO.C,J1*%
X163800000Y-92004999D02*
X163800000Y-94004999D01*
X163800000Y-95904999D02*
X163800000Y-97804999D01*
X173200000Y-95904999D02*
X173200000Y-97804999D01*
X173200000Y-92004999D02*
X173200000Y-94004999D01*
X163800000Y-97804999D02*
X173200000Y-97804999D01*
%TO.C,U1*%
X169360000Y-43430000D02*
X170410000Y-43430000D01*
X170410000Y-43430000D02*
X170410000Y-44480000D01*
X155760000Y-43430000D02*
X154560000Y-43430000D01*
X170260000Y-43580000D02*
X170260000Y-48180000D01*
X154860000Y-43580000D02*
X170260000Y-43580000D01*
X155760000Y-63730000D02*
X154710000Y-63730000D01*
X170260000Y-48180000D02*
X170260000Y-63580000D01*
X170260000Y-63580000D02*
X154860000Y-63580000D01*
X169360000Y-63730000D02*
X170410000Y-63730000D01*
X154860000Y-43580000D02*
X154860000Y-48180000D01*
X154710000Y-63730000D02*
X154710000Y-62680000D01*
X154860000Y-63580000D02*
X154860000Y-48180000D01*
X170410000Y-63730000D02*
X170410000Y-62680000D01*
%TO.C,J3*%
X151670000Y-48470000D02*
X153000000Y-48470000D01*
X154330000Y-51070000D02*
X154330000Y-86690000D01*
X151670000Y-49800000D02*
X151670000Y-48470000D01*
X151670000Y-51070000D02*
X151670000Y-86690000D01*
X151670000Y-51070000D02*
X154330000Y-51070000D01*
X151670000Y-86690000D02*
X154330000Y-86690000D01*
D12*
%TO.C,SW1*%
X164095000Y-64969999D02*
X165095000Y-64969999D01*
X164095000Y-69169999D02*
X165095000Y-69169999D01*
X166195000Y-68319999D02*
X166195000Y-65819999D01*
X162995000Y-68319999D02*
X162995000Y-65819999D01*
X163495000Y-69919999D02*
G75*
G03*
X163495000Y-69919999I-50000J0D01*
G01*
X163556803Y-69969999D02*
G75*
G03*
X163556803Y-69969999I-111803J0D01*
G01*
%TD*%
M02*
